<svg height="150" width="300" xmlns="http://www.w3.org/2000/svg"><g transform="translate(0 -902.36218)"><path d="m1.4206502 976.87407c-.53647954.2756-.56343386.77412-.059998 1.10728l45.9763018 30.36795 13.174574-61.97421-59.0908579 30.49898" fill="#ee2722"/><path d="m273.64059 946.36407h-11.6239c-.60386 0-1.53842.22782-2.07614.50342l-58.26775 30.02496c-.53771.27682-.56098.77288-.0613 1.10604v.002l45.20953 29.75302c.50587.3307 1.41104.6051 2.0198.6051h11.61778c.60263 0 .6847-.2707.1874-.6014l-46.14042-30.36058 59.25499-30.52959c.53894-.27559.48259-.50342-.12005-.50342" fill="#f47216"/><path d="m248.73922 946.36407h-80.99132l-13.16111 61.99503h80.97663c.60263 0 .68225-.2707.18372-.6051l-46.06325-30.35691 59.1766-30.5296c.53771-.2756.48136-.50342-.12127-.50342" fill="#ee2722"/><path d="m298.50768 946.36407h-11.62146c-.60631 0-1.53843.22782-2.07492.50342l-58.27264 30.02496c-.53281.27682-.55854.77288-.0588 1.10604.002 0 .002 0 .002.002l45.20709 29.75302c.50341.3307 1.41226.6051 2.01489.6051h11.6239c.60142 0 .68348-.2707.18252-.6014l-46.13994-30.36058 59.25988-30.52959c.53649-.27559.48382-.50342-.12248-.50342" fill="#fab20b"/><g fill="#ee2722"><path d="m245.15529 905.80042h-190.681112c-10.642788 0-18.091156 6.69753-19.848828 14.9739-.962744 4.54178.763089 8.58381 4.26128 11.35445l68.51248 45.22912.0527-.0258.009.0258 137.81743-71.05159c.53497-.27683.48229-.50588-.12278-.50588"/><path d="m214.91108 1048.3189s0 0-.002 0l-107.44828-70.96101-.0183.0258-.0429-.0258-87.743988 45.24381c-4.669157 2.7535-8.112236 6.8017-9.077418 11.3532-1.7699205 8.2593 2.823289 14.969 13.47344 14.969h190.676206c.60631 0 .68592-.2731.18372-.605"/></g></g></svg>